<svg xmlns="http://www.w3.org/2000/svg" viewBox="0 0 164.77 165.08"><defs><style>.cls-1{fill:none;stroke:#fff;stroke-miterlimit:10;stroke-width:7px;}</style></defs><title>Asset 4</title><g id="Layer_2" data-name="Layer 2"><g id="Layer_2-2" data-name="Layer 2"><polyline class="cls-1" points="37.95 3.5 3.5 3.5 3.5 139.74 37.95 139.74"/><polyline class="cls-1" points="66.53 3.5 140.13 3.5 140.13 81.18"/><path class="cls-1" d="M75.93,105.68V88.06s.78-4.31,3.91-4.31h43.06s4.7,0,4.31,4.31l0,59.9s-.81,3.52-5.11,2"/><path class="cls-1" d="M87.67,129.17S77.1,113.9,95.5,108.81c0,0,17.64,5.09,6.08,20.36l11.54,30.54H77.88Z"/><path class="cls-1" d="M75.93,117c-.15.19-20.86,0-20.86,0s-4.71-.28-3.77,8.19-.12,31.07-.12,31.07,2,4.46,6.24,3.41a23.3,23.3,0,0,1,9.11,0"/><path class="cls-1" d="M140.13,91.33c.14,0,18,5.65,18,5.65s4.24,1.41,2.82,6.59-14.59,52.72-14.59,52.72-.28,6.12-6.26,5.18a78.54,78.54,0,0,1-8.81-1.77"/><polygon class="cls-1" points="70.21 73.54 55.57 67.18 42.02 75.63 43.55 59.73 31.32 49.46 46.91 46.01 52.9 31.2 61.01 44.96 76.94 46.08 66.36 58.05 70.21 73.54"/><path class="cls-1" d="M20.73,19.78c3.27,3.3,9.39,6.12,9.39,6.12L44.71,3.5"/><path class="cls-1" d="M40.25,23c3.27,3.3,9.39,6.12,9.39,6.12L64.23,6.71"/></g></g></svg>
