<?xml version="1.0" standalone="no"?>
<!DOCTYPE svg PUBLIC "-//W3C//DTD SVG 20010904//EN"
 "http://www.w3.org/TR/2001/REC-SVG-20010904/DTD/svg10.dtd">
<svg version="1.0" xmlns="http://www.w3.org/2000/svg"
 width="400.000000pt" height="400.000000pt" viewBox="0 0 400.000000 400.000000"
 preserveAspectRatio="xMidYMid meet">
<metadata>
Created by potrace 1.11, written by Peter Selinger 2001-2013
</metadata>
<g transform="translate(0.000000,400.000000) scale(0.100000,-0.100000)"
fill="#000000" stroke="none">
<path d="M0 2000 l0 -2000 2000 0 2000 0 0 2000 0 2000 -2000 0 -2000 0 0
-2000z m1570 1651 c6 -13 10 -252 10 -705 l0 -686 420 0 420 0 0 686 c0 453 4
692 10 705 10 18 23 19 233 19 160 0 226 -3 235 -12 17 -17 17 -1549 0 -1566
-15 -15 -51 -15 -66 0 -9 9 -12 189 -12 750 l0 738 -150 0 -150 0 0 -686 c0
-453 -4 -692 -10 -705 -10 -18 -27 -19 -510 -19 -483 0 -500 1 -510 19 -6 13
-10 252 -10 705 l0 686 -150 0 -150 0 0 -738 c0 -561 -3 -741 -12 -750 -15
-15 -51 -15 -66 0 -17 17 -17 1549 0 1566 9 9 75 12 235 12 210 0 223 -1 233
-19z m-392 -2470 l2 -781 150 0 150 0 0 717 c0 653 1 718 17 735 15 17 44 18
501 18 438 0 487 -2 504 -17 17 -15 18 -51 18 -735 l0 -718 150 0 150 0 2 783
3 782 28 3 c60 7 57 54 57 -829 0 -721 -2 -809 -16 -823 -23 -24 -419 -24
-452 0 l-22 15 0 720 0 719 -420 0 -420 0 0 -719 0 -720 -22 -15 c-33 -24
-429 -24 -452 0 -14 14 -16 102 -16 824 l0 809 21 15 c14 9 29 12 43 7 l21 -8
3 -782z"/>
</g>
</svg>
