<svg xmlns="http://www.w3.org/2000/svg" viewBox="0 0 115.72 118.86"><defs><style>.cls-1{fill:none;stroke:#fff;stroke-miterlimit:10;stroke-width:5px;}</style></defs><title>Asset 4</title><g id="Layer_2" data-name="Layer 2"><g id="Layer_2-2" data-name="Layer 2"><line class="cls-1" x1="51.06" y1="33.64" x2="115.72" y2="33.64"/><polyline class="cls-1" points="88.06 112.33 99.55 112.33 105.93 33.64"/><path class="cls-1" d="M60.71,43.85"/><line class="cls-1" x1="60.71" y1="43.85" x2="60.71" y2="33.64"/><path class="cls-1" d="M80.83,33.64S79.56,9.39,91.89,2.16"/><path class="cls-1" d="M8.52,75.75c-.08-.42-2.55-21.7,29.35-31.9,0,0,17.44-4.68,33.61,4.68,0,0,20.42,10.21,16.59,28.93,0,0,.43,5.53-9.78,4.68C24.68,82.22,10.64,86.38,8.52,75.75Z"/><path class="cls-1" d="M17,116.36H86.34l2.2-10s2.07-7.66-5.16-6.38S37,99.85,37,99.85H11.07s-4.4,0-2.63,8.25S17,116.36,17,116.36Z"/><path class="cls-1" d="M2.46,86s1.32,7.66,12.34,7.66S32,77.45,43,93.62c0,0,4.85,11.06,20.71-6.81,0,0,15,11.49,28.19,0"/></g></g></svg>
